# xmcd
#
# Track frame offsets:
# 150
# 26320
# 50922
# 81471
# 109695
# 139312
# 170041
# 198325
#
# Disc length: 3027 seconds
#
#
# Revision: 0
# Processed by: cddbd v1.5.2PL0 Copyright (c) Steve Scherf et al.
# Submitted via: FreeRIP 2.90 
#
DISCID=710bd108
DTITLE=ASMAHAN and FARID - ASMAHAN and FARID
DYEAR=1900
DGENRE=Ethnic
TTITLE0=layta lel barrak
TTITLE1=dakhalt marra
TTITLE2=ya touyour
TTITLE3=aleik salat allah
TTITLE4=ishak ya boulboul
TTITLE5=ansak wa aftekrak
TTITLE6=baheb min gher amal
TTITLE7=ehlefli
EXTD=
EXTT0=
EXTT1=
EXTT2=
EXTT3=
EXTT4=
EXTT5=
EXTT6=
EXTT7=
PLAYORDER=
